<?xml version="1.0" encoding="UTF-8"?>
<svg width="36px" height="36px" viewBox="0 0 36 36" version="1.1" xmlns="http://www.w3.org/2000/svg" xmlns:xlink="http://www.w3.org/1999/xlink">
    <!-- Generator: Sketch 3.8.3 (29802) - http://www.bohemiancoding.com/sketch -->
    <title>options</title>
    <desc>Created with Sketch.</desc>
    <defs></defs>
    <g id="Page-1" stroke="none" stroke-width="1" fill="none" fill-rule="evenodd">
        <g id="FreeIconSet" transform="translate(-576.000000, -72.000000)" fill="#444444">
            <g id="options" transform="translate(576.000000, 72.000000)">
                <path d="M36,22 L36,14 L31.2,14 C30.9,13.1 30.6,12.3 30.1,11.5 L33.4,8.2 L27.8,2.6 L24.5,5.9 C23.7,5.5 22.8,5.1 22,4.8 L22,0 L14,0 L14,4.7 C13.1,5 12.1,5.3 11.3,5.8 L8.1,2.6 L2.4,8.1 L5.7,11.4 C5.3,12.2 4.9,13.1 4.6,14 L0,14 L0,22 L4.4,22 C4.7,23 5,23.9 5.5,24.8 L2.3,28 L8,33.7 L11.2,30.5 C12.1,31 13,31.4 14,31.6 L14,35.9 L22,35.9 L22,31.5 C22.9,31.2 23.7,30.9 24.6,30.4 L27.9,33.7 L33.5,27.9 L30.3,24.7 C30.8,23.8 31.1,22.9 31.4,22 L36,22 L36,22 Z M30.6,28 L27.8,30.9 L24.9,27.9 L24.2,28.3 C23.1,29 22,29.5 20.8,29.8 L20,30 L20,34 L16,34 L16,30.1 L15.2,29.9 C13.9,29.6 12.7,29.1 11.6,28.4 L10.9,28 L8,30.9 L5.1,28 L8,25.1 L7.6,24.4 C6.9,23.3 6.4,22 6.1,20.8 L5.9,20 L2,20 L2,16 L6,16 L6.2,15.2 C6.5,14 7,12.8 7.7,11.8 L8.1,11.1 L5.1,8.2 L7.9,5.4 L10.8,8.3 L11.5,7.9 C12.6,7.2 13.8,6.7 15.1,6.4 L15.9,6.2 L15.9,2 L19.9,2 L19.9,6.4 L20.7,6.6 C21.9,6.9 23.1,7.4 24.1,8.1 L24.8,8.5 L27.8,5.5 L30.5,8.3 L27.5,11.3 L27.9,12 C28.6,13.1 29.1,14.2 29.4,15.4 L29.6,16.2 L34,16.2 L34,20.2 L29.7,20.2 L29.5,21 C29.2,22.3 28.7,23.5 28.1,24.6 L27.7,25.3 L30.6,28 L30.6,28 Z" id="Shape"></path>
                <path d="M17.8,12.2 C14.5,12.2 11.8,14.9 11.8,18.2 C11.8,21.5 14.5,24.2 17.8,24.2 C21.1,24.2 23.8,21.5 23.8,18.2 C23.8,14.9 21.1,12.2 17.8,12.2 L17.8,12.2 Z M17.8,22.2 C15.6,22.2 13.8,20.4 13.8,18.2 C13.8,16 15.6,14.2 17.8,14.2 C20,14.2 21.8,16 21.8,18.2 C21.8,20.4 20,22.2 17.8,22.2 L17.8,22.2 Z" id="Shape"></path>
            </g>
        </g>
    </g>
</svg>